<svg width="270" height="78" viewBox="0 0 270 78" fill="none" xmlns="http://www.w3.org/2000/svg">
<path d="M33.7309 42.9453L35.4129 62.2L24.8292 63.1246L23.2084 44.5712L9.93191 22.0251L21.0257 21.056L29.5205 37.4027L34.4147 19.8863L43.2769 19.1121L33.7309 42.9453Z" fill="#0EAE7C"/>
<path d="M75.1983 52.3C75.3023 53.4901 75.542 54.5185 75.9175 55.3851C76.293 56.2517 76.8718 56.9935 77.6538 57.6104C77.1957 58.2501 76.5121 58.7595 75.603 59.1387C74.7401 59.5567 73.8411 59.8066 72.906 59.8883C71.3758 60.0219 70.0516 59.8164 68.9333 59.2717C67.8112 58.6844 67.0051 57.7912 66.5149 56.592C65.791 58.1114 64.6937 59.278 63.223 60.0917C61.7984 60.9443 60.151 61.4522 58.2808 61.6156C55.178 61.8867 52.7402 61.4358 50.9674 60.263C49.2371 59.0864 47.9935 57.3534 47.2367 55.0639C46.48 52.7744 45.9419 49.802 45.6226 46.1465L44.0964 28.6771L53.9788 27.8138L55.4771 44.9644C55.711 47.6422 55.9641 49.8044 56.2365 51.451C56.5476 53.0513 57.0702 54.3762 57.8043 55.4256C58.5772 56.4288 59.665 56.8692 61.0677 56.7466C62.6829 56.6055 63.7923 55.8233 64.3961 54.4C65.0423 52.9731 65.2764 51.2394 65.0981 49.1992L63.1598 27.0117L72.9147 26.1595L75.1983 52.3Z" fill="#0EAE7C"/>
<path d="M111.435 49.1343C111.539 50.3245 111.779 51.3528 112.155 52.2195C112.53 53.0861 113.109 53.8278 113.891 54.4448C113.433 55.0844 112.749 55.5938 111.84 55.9731C110.977 56.3911 110.078 56.6409 109.143 56.7226C107.613 56.8563 106.289 56.6508 105.17 56.106C104.048 55.5188 103.242 54.6255 102.752 53.4263C102.028 54.9458 100.931 56.1123 99.4599 56.9261C98.0354 57.7786 96.388 58.2866 94.5178 58.45C91.415 58.721 88.9771 58.2702 87.2043 57.0973C85.4741 55.9208 84.2305 54.1878 83.4737 51.8983C82.7169 49.6088 82.1789 46.6363 81.8595 42.9809L80.3334 25.5114L90.2158 24.6481L91.7141 41.7988C91.948 44.4766 92.2011 46.6388 92.4735 48.2853C92.7846 49.8857 93.3072 51.2105 94.0413 52.26C94.8142 53.2632 95.902 53.7035 97.3047 53.581C98.9198 53.4399 100.029 52.6577 100.633 51.2344C101.279 49.8074 101.513 48.0738 101.335 46.0336L99.3968 23.8461L109.152 22.9939L111.435 49.1343Z" fill="#0EAE7C"/>
<path d="M147.672 45.9687C147.776 47.1588 148.016 48.1872 148.391 49.0538C148.767 49.9204 149.346 50.6622 150.128 51.2791C149.67 51.9188 148.986 52.4282 148.077 52.8074C147.214 53.2254 146.315 53.4753 145.38 53.557C143.85 53.6907 142.526 53.4851 141.407 52.9404C140.285 52.3531 139.479 51.4599 138.989 50.2607C138.265 51.7801 137.168 52.9467 135.697 53.7604C134.272 54.613 132.625 55.1209 130.755 55.2843C127.652 55.5554 125.214 55.1045 123.441 53.9317C121.711 52.7551 120.468 51.0221 119.711 48.7326C118.954 46.4431 118.416 43.4707 118.097 39.8153L116.57 22.3458L126.453 21.4825L127.951 38.6332C128.185 41.311 128.438 43.4731 128.71 45.1197C129.022 46.72 129.544 48.0449 130.278 49.0943C131.051 50.0975 132.139 50.5379 133.542 50.4153C135.157 50.2742 136.266 49.492 136.87 48.0688C137.516 46.6418 137.75 44.9082 137.572 42.8679L135.634 20.6804L145.389 19.8282L147.672 45.9687Z" fill="#0EAE7C"/>
<path d="M152.871 19.1746L160.774 17.7133L161.722 23.4124C162.973 19.1059 166.128 16.7316 171.186 16.2898C173.651 16.0744 175.668 16.3693 177.238 17.1744C178.803 17.9371 180.027 19.2007 180.909 20.9653C182.29 17.1613 185.233 15.0626 189.739 14.669C193.394 14.3496 196.074 15.122 197.779 16.986C199.484 18.8501 200.511 21.7798 200.86 25.7753L202.208 41.2045C202.312 42.3946 202.551 43.423 202.927 44.2896C203.302 45.1562 203.881 45.898 204.663 46.515C204.247 47.1509 203.564 47.6603 202.612 48.0432C201.707 48.465 200.787 48.7167 199.852 48.7984C197.641 48.9915 195.914 48.5856 194.67 47.5807C193.422 46.5333 192.702 44.9045 192.508 42.6943L191.149 27.1375C190.934 24.6722 190.535 22.8012 189.952 21.5244C189.37 20.2476 188.25 19.6816 186.592 19.8264C184.637 19.9972 183.426 21.0881 182.959 23.099C182.535 25.1062 182.456 27.64 182.724 30.7003L184.339 49.1899L174.584 50.0421L172.724 28.7472C172.504 26.2394 172.105 24.3684 171.527 23.1341C170.944 21.8573 169.781 21.295 168.038 21.4472C165.956 21.6292 164.658 22.7062 164.145 24.6783C163.674 26.6467 163.577 29.2036 163.851 32.349L165.467 50.8386L155.712 51.6907L152.871 19.1746Z" fill="#0EAE7C"/>
<path d="M234.011 12.0863L222.816 58.2276L212.988 58.251L218.571 42.7302L214.618 43.0756L203.981 14.7096L214.182 13.8185L221.804 37.8222L225.595 12.8215L234.011 12.0863Z" fill="#0EAE7C"/>
<path d="M240.616 0.523559C243.974 0.230217 245.812 1.91125 246.132 5.56666C246.225 6.62928 246.288 7.84438 246.322 9.21196C246.352 10.537 246.368 11.4565 246.37 11.9702L246.365 13.384L246.355 30.9234C245.797 31.4004 244.966 31.6872 243.861 31.7838C242.373 31.9137 241.362 31.6166 240.828 30.8924C240.29 30.1256 239.879 28.8552 239.595 27.0811L236.048 2.65717C236.556 2.09884 237.222 1.63378 238.046 1.26198C238.909 0.843964 239.766 0.597823 240.616 0.523559ZM244.037 36.0085C245.737 35.8599 247.133 36.1449 248.223 36.8634C249.357 37.5781 249.986 38.6581 250.112 40.1033C250.242 41.5909 249.788 42.7656 248.75 43.6272C247.715 44.5313 246.327 45.0595 244.584 45.2118C242.884 45.3603 241.469 45.0984 240.34 44.4262C239.21 43.7539 238.582 42.6952 238.456 41.2501C238.326 39.7624 238.778 38.5665 239.813 37.6624C240.886 36.712 242.294 36.1607 244.037 36.0085Z" fill="#0EAE7C"/>
<path fill-rule="evenodd" clip-rule="evenodd" d="M269.179 39.7695C269.179 39.7695 269.738 40.1585 269.179 40.7695C252.613 58.8644 243.077 73.5347 220.573 75.8104C198.894 78.0026 166.275 66.737 142.426 64.0815C141.587 63.988 140.747 63.8945 139.907 63.8012C130.202 62.7228 118.842 63.6497 106.661 65.4229C98.5919 66.5974 90.2379 68.1303 81.8082 69.6771C77.5009 70.4675 73.1738 71.2615 68.8549 72.0132C56.1304 74.2277 43.5284 77.5642 32.0151 77.7695C20.5138 77.9746 9.95252 75.057 1.38577 70.6438C0.649316 70.2644 0.359856 69.3599 0.73924 68.6234C0.73924 65.4229 4.50278 65.0435 5.23923 65.4229C11.7392 69.6771 20.7351 72.2143 32.0151 72.0132C43.283 71.8122 55.64 71.268 68.3405 69.0576C72.5988 68.3165 76.8956 67.5281 81.1892 66.7403C89.6547 65.1871 98.1077 63.6362 106.229 62.4541C118.478 60.6711 130.144 59.6979 140.238 60.8195C141.031 60.9076 141.822 60.9957 142.613 61.0837C166.582 63.7519 189.943 66.3524 211.297 64.193C233.293 61.9687 252.245 57.6209 268.179 40.2158C268.738 39.6048 269.179 39.7695 269.179 39.7695Z" fill="#1B2138"/>
</svg>
